<svg id="그룹_27" data-name="그룹 27" xmlns="http://www.w3.org/2000/svg" xmlns:xlink="http://www.w3.org/1999/xlink" width="1236" height="2226.132" viewBox="0 0 1236 2226.132">
  <defs>
    <clipPath id="clip-path">
      <rect id="사각형_65" data-name="사각형 65" width="1236" height="2226.132" fill="#ebf0fd"/>
    </clipPath>
  </defs>
  <g id="그룹_25" data-name="그룹 25" clip-path="url(#clip-path)">
    <path id="패스_100" data-name="패스 100" d="M175.559,339.637h0a28.839,28.839,0,0,1,4.734.317c.752,2.9,1.863,9.523,1.863,23.392,0,18.348-2.277,24.186-3.015,25.594-1.166.545-5.831,2.27-18.065,2.27-14.07,0-33.833-2.2-62.186-6.921-11.689-1.946-18.479-3.933-22.3-5.389,10.6-13.477,66.982-39.263,98.966-39.263M77.022,377.485h0m98.538-72.351c-43.714,0-122.034,34.426-131.184,61.186-10.42,30.465,2.574,44.3,48.848,52,28.45,4.741,50.635,7.391,67.852,7.391,44.287,0,55.583-17.569,55.583-62.366,0-36.62-6.452-50.607-25.987-56.362a54.308,54.308,0,0,0-15.112-1.849" transform="translate(241.915 1800.419)" fill="#ebf0fd"/>
    <path id="패스_101" data-name="패스 101" d="M1147.1,34.606c12.5,1.8,25.456,26.546,34.116,65.464l4.713,21.2c10.723,48.068,17.2,77.084,15.236,90.092-.987,6.535-6.569,12.228-28.133,31.859-2.96,2.691-6.1,5.548-9.426,8.6-45.777,42.079-67.562,70.881-67.562,120.771,0,31.045-41.092,106.646-119.639,191.072-77.07,82.839-147.372,127.54-174.387,127.54-52.65,0-76.042,26.642-85.427,42.755-2.07,3.609-7.446,7.356-10.185,8.142-8.039.083-39,1.428-55.569,16.865-34.012,31.59-.428,84.9,10.647,102.485,15.174,23.979,36.172,50.352,60.855,76.408,3.913,4.085,7.922,8.6,12.248,13.794,5.707,6.866,11.434,14.4,16.961,22.309,15.657,22.537,28.029,46.219,32.252,61.71.814,3.029,1.746,6.183,2.712,9.329a302.152,302.152,0,0,0,11.137,30.017c15.65,35.7,28.271,45.322,32.328,48.413a23.959,23.959,0,0,1,5.707,6.921c.738,8.888,4.306,16.747,7.445,22.758,6.273,12.034,17.313,28.05,31.2,45.246,5.313,6.5,12.414,15.064,20.046,23.385l1.18,1.318,1.422,1.58c64.719,72.247,80.079,113.56,82.184,221.034,1.18,58.846,13.546,144.619,27.574,191.245,14.822,49.089,17.493,88.091,14.656,100.083-7.646,32.273-50.5,80.6-65.975,87.228-21.129.807-38.725,11.593-46.716,27.133a100.9,100.9,0,0,1-18.1,5.334c-24.165,4.92-55.238,18.81-71.633,38.552q-.393-.227-.807-.455c-13.725-7.818-26.235-14.284-40.374-14.284-22.275,0-33.964,14.18-40.25,27.043-16.989-10.047-30.714-20.149-34.281-23.482a39.943,39.943,0,0,0-30.859-13.891c-22.613,0-47.406,17.865-60.178,28.519-40.8,34.06-84.13,54.4-115.927,54.4-11.234,0-19.735-2.595-25.249-7.708-8.363-7.77-21.605-18.086-39.905-18.086-18.224,0-31.487,10.268-40.022,18.127-1.2,1.118-2.222,2.015-3.078,2.746-3.837-2.795-10.606-8.515-22.3-20.2-17.789-17.865-23.454-32.8-23.3-61.524.173-53.375,28.533-135.213,61.91-178.714,26.263-34.205,37.338-66.3,32.032-92.81a57.592,57.592,0,0,0-17.258-31.231,137.381,137.381,0,0,1,1.29-31.362,219.183,219.183,0,0,0,2.6-30.99c.138-30.541-8.846-53.478-29.168-74.414-5.72-5.872-7.425-12.11-4.92-18.051,2.491-5.9,9.8-12.207,22.84-12.207,16.126,0,40.5,0,55.693-18.617,15.174-18.576,10.364-42.161,7.211-57.639-1.753-8.743-3.8-17.265-6.072-25.324-3.492-13.09-7.763-26.394-12.7-39.594-12.669-33.75-39.526-92.307-76.967-105.293-15.036-5.279-37.98-6.39-54.582-6.39-12.717,0-25.966.656-38.359,1.9-2.125.145-4.244.38-6.314.621a247.68,247.68,0,0,1-26.918,1.918c-8.619-13.745-24.186-23.234-42.161-24.2-21.129-8.853-66.541-57.432-73.8-75.7,1.67-7.908,9.357-27.719,21.467-46.253,11.379-17.3,29.851-47.93,32.729-68.431,1.987-4.768,9.136-17.52,19.818-31.314a244.671,244.671,0,0,0,16.451-24.365c.511-.856.987-1.739,1.421-2.636,6.259-10.827,18.59-33.653,23.827-53.975,16.947-66.037-28.664-79.479-43.735-83.916A40.164,40.164,0,0,1,202,734.8c-5.934-13.987-19.942-23.344-37.11-23.351-11.275,0-23.8,3.947-37.2,11.717a32.594,32.594,0,0,1-8.225,3.354,46.8,46.8,0,0,0-7.7-28.913,43.53,43.53,0,0,0-9.005-9.771,40.29,40.29,0,0,0-3.982-10.73c-8.225-15.181-25.276-23.965-46.847-24.151-3.333-.766-10.316-5.106-13.925-9.881C40.9,640.4,45.155,636.7,51.4,631.58c17.389-14.18,38.463-23.075,44.639-23.765,26.477-.476,56.984-17.789,72.565-41.168a33.1,33.1,0,0,1,11.731-10.164c29.858-1,72.551-21.5,89.823-30.445,51.518-26.663,66.527-45.591,71.84-55.348,3.788-1.373,12.372-3.312,27.05-3.312,24.234,0,80.272-.007,82.763-55.038,7.866-16.2,48.917-54.051,64.857-59.613,19.576-1.463,41.223-18.438,55.148-31.48l.449.8c7.163,12.876,28.954,52.05,66.968,52.05a53.258,53.258,0,0,0,18.01-3.14c5.81-1.877,32.729-5.375,63.484-5.375,25.269,0,77.85,0,94.8-44.652,7.942-21.032,76.008-86.2,99.338-95.5,26.594-1.677,56.542-21.709,70.522-33.75,10.682-9.205,21.343-15.464,25.738-17.361,31.238-3.25,52.153-41.113,57.97-53.016,19.894-40.443,62.787-81.183,78-86.7M1012.253,173.883h0M96.163,607.8h0M232.19,860.032h0M1145.645,0c-26.008,0-83.026,56.3-107.5,106.073-9.185,18.769-23.254,33.971-31.314,33.971-7.956,0-27.746,11.524-43.962,25.5s-39.374,25.5-51.511,25.5c-24.579,0-115.05,83.129-128.106,117.707-6.121,16.112-23.254,22.337-62.525,22.337-29.782,0-63.539,3.264-74.966,7.342a19.125,19.125,0,0,1-6.528,1.173q-17.772,0-36.82-34.323l-22.544-40.492-26.925,26.725c-14.788,14.788-32.328,26.822-38.96,26.822-25.1,0-96.592,66.81-96.592,90.168,0,19.376-9.9,24.379-48.344,24.379-31.01,0-51.408,7.038-56.611,19.68-8.977,21.626-101.284,69.459-134.33,69.459-11.524,0-28.761,11.427-38.145,25.4-9.385,14.077-29.582,25.7-44.673,25.9-15.2.207-44.673,14.387-65.685,31.521C-3.652,632.07-6.3,639.108,8.893,661.652c9.585,14.18,28.664,25.808,42.327,25.808,13.773,0,21.115,5.707,16.526,12.745-4.692,7.038-1.325,12.752,7.446,12.752s12.338,8.77,7.956,19.583c-7.294,17.617,8.522,29.382,29.617,29.382a65.031,65.031,0,0,0,32.19-8.881c8.032-4.651,15.229-7.087,19.928-7.087,3.547,0,5.672,1.38,5.672,4.23,0,6.528,12.855,15.809,28.561,20.4,22.847,6.735,26.925,15.2,19.99,42.23-3.264,12.648-11.731,30.8-21.419,47.219v.207a211.817,211.817,0,0,1-14.077,20.908c-14.684,18.976-26.725,40.292-26.725,47.427,0,7.038-12.338,31.625-27.436,54.575-14.988,22.944-27.436,52.829-27.436,66.6,0,25.393,63.953,93.735,96.392,106.584a24.547,24.547,0,0,0,9.178,2.139c9.792,0,17.844,6.528,17.844,14.484,0,6.535,9.088,9.8,27.1,9.8a278.392,278.392,0,0,0,31.148-2.146c1.732-.207,3.464-.407,5.2-.511a354.316,354.316,0,0,1,35.489-1.787c18.562,0,34.882,1.539,43.148,4.437,17.644,6.121,39.677,41.106,56.1,84.861,4.382,11.731,8.356,23.972,11.724,36.62,2.146,7.549,3.982,15.3,5.513,22.951,6.321,31,2.953,34.985-29.071,34.985-51.608,0-77.215,53.34-42.638,88.836,13.566,13.973,19.48,28.154,19.383,50.18a187,187,0,0,1-2.25,26.215c-4.078,28.154-1.835,54.465,5,58.343,20.094,11.524,14.38,43.652-14.277,80.983-38.049,49.573-68.852,138.719-69.052,199.608-.207,38.049,8.971,61.5,33.35,85.986,22.219,22.219,35.44,32.349,47.461,32.349,8.336,0,16.1-4.878,25.877-13.987,6.424-5.921,11.475-8.874,16.506-8.874s10.061,2.953,16.437,8.874c12.3,11.413,29.092,16.92,48.717,16.92,39.111,0,89.484-21.867,138.043-62.414,15.07-12.572,30.21-20.5,38.063-20.5,2.077,0,3.65.559,4.568,1.732,4.389,5.61,24.172,19.79,44.162,31.521,16.547,9.75,25.635,14.815,31.355,14.815,6.307,0,8.515-6.162,12.1-19,3.65-12.855,6.6-18.742,13.2-18.742,5.023,0,12.158,3.416,23.316,9.764,11.517,6.555,19.038,9.95,24.876,9.95,6.887,0,11.441-4.72,17.451-14.539,7.142-11.731,31.521-25.09,54.058-29.686,22.647-4.589,41.106-13.663,41.106-20.087s8.667-11.73,19.376-11.73c27.539,0,86.393-68.949,97-113.726,5.306-22.44-.814-70.377-15.195-118.011-13.263-44.066-24.986-125.967-26.111-181.963-2.243-114.643-20.8-165.03-90.982-243.364-.918-1.021-1.732-1.939-2.65-2.96-6.735-7.342-13.055-14.891-18.976-22.13-12.442-15.4-22.33-29.782-27.332-39.374-2.346-4.485-3.671-7.956-3.671-10.1,0-8.977-8.57-22.951-19.073-31.01-6.424-4.892-14.484-18.355-21.722-34.882a266.8,266.8,0,0,1-9.8-26.415c-.814-2.656-1.628-5.41-2.339-8.06-5.514-20.2-19.583-47.019-37.228-72.42-5.921-8.467-12.241-16.83-18.769-24.683-4.6-5.506-9.184-10.709-13.87-15.6C723.478,888.9,704,864.117,690.639,843c-18.051-28.657-24.89-50.794-16.319-58.75,4.485-4.182,19.376-7.653,32.943-7.653s31.21-11.42,39.27-25.5c9.688-16.623,28.761-25.393,55.486-25.393,94.349,0,328.528-251.734,328.528-353.114,0-34.171,12.241-54.775,56.4-95.37,60.586-55.686,58.957-44.57,27.947-184.613C1201.131,30.7,1178.18,0,1145.645,0" transform="translate(0.001 0)" fill="#ebf0fd"/>
    <path id="패스_102" data-name="패스 102" d="M160.826,411.483l25.131-10.551L81.933,153.208l31.811-13.359L217.768,387.573,242.9,377.016l-11.192,88.3Z" transform="translate(483.44 825.166)" fill="#ebf0fd"/>
    <path id="패스_103" data-name="패스 103" d="M148.306,189.424l-25.131,10.551L227.2,447.7l-31.818,13.359L91.364,213.334,66.232,223.891l11.192-88.3Z" transform="translate(390.797 800.059)" fill="#ebf0fd"/>
  </g>
</svg>
